<svg width="430" height="179" viewBox="0 0 430 179" fill="none" xmlns="http://www.w3.org/2000/svg">
<path d="M69.5394 122.47C67.0195 116.81 60.0416 116.267 54.7525 118.622C50.5611 120.488 44.0196 127.358 46.3237 132.533C47.8153 135.883 51.9617 138.814 63.2384 133.793C68.1948 131.587 71.1939 126.186 69.5394 122.47ZM77.9855 141.44C75.2435 135.281 67.6101 134.762 63.1432 136.751C59.5933 138.332 50.0792 144.242 52.8424 150.448C55.5675 156.568 64.2157 156.681 70.9542 153.681C77.7591 150.651 79.4031 144.624 77.9855 141.44ZM43.8798 117.222C42.073 113.163 34.3054 111.691 28.4936 114.278C24.3498 116.123 19.7311 121.915 21.8976 126.781C24.0832 131.69 31.7712 131.769 37.9299 129.027C42.6582 126.922 45.5936 121.071 43.8798 117.222ZM64.6652 163.906C63.1874 160.766 58.9196 158.777 52.3785 158.307C47.8245 157.977 44.1371 159.146 41.9864 161.567C40.4807 163.263 39.8636 165.445 40.2961 167.695C40.392 168.205 40.5608 168.699 40.7703 169.169C42.465 172.976 47.7227 175.116 54.4935 174.721C57.9982 174.51 61.7163 172.604 63.7396 170.012C64.9402 168.476 65.4102 166.871 65.1224 165.342C65.0281 164.849 64.8757 164.353 64.6652 163.906ZM42.4097 143.386C40.6769 139.494 36.689 138.325 32.4634 137.109C31.0678 136.711 29.6372 136.312 28.1823 135.781C26.4247 135.146 24.9379 134.339 23.6387 133.659C20.5558 132.042 17.8814 130.665 13.9704 132.406C10.4349 133.98 8.05458 138.251 10.3311 143.364C11.5879 146.187 13.1155 147.955 14.5944 149.666C15.9073 151.182 17.1378 152.616 18.0751 154.721C19.097 157.016 19.6441 159.255 20.1584 161.446C20.661 163.586 21.1521 165.827 22.119 167.999C24.6685 173.725 28.3373 175.571 32.9563 173.514C36.4871 171.942 36.4699 168.323 36.462 165.12C36.4591 163.003 36.4613 160.822 37.3285 159.086C38.0495 157.649 38.8652 156.284 39.692 154.982C42.0699 151.23 44.3372 147.715 42.4097 143.386Z" fill="url(#paint0_linear_1134_2212)"/>
<path d="M110.46 47.7233C107.842 42.1085 100.856 41.6872 95.6085 44.134C91.4504 46.0729 85.0297 53.0559 87.4238 58.1899C88.9736 61.5136 93.1706 64.372 104.358 59.1552C109.275 56.8623 112.179 51.41 110.46 47.7233ZM119.236 66.5433C116.387 60.4334 108.746 60.0478 104.314 62.1142C100.793 63.7564 91.3831 69.8315 94.2541 75.9886C97.0857 82.0608 105.735 82.0225 112.42 78.9052C119.171 75.7571 120.709 69.7019 119.236 66.5433ZM84.7131 42.924C82.8357 38.8979 75.0435 37.561 69.2778 40.2496C65.1668 42.1665 60.6499 48.0379 62.901 52.8655C65.172 57.7355 72.8602 57.6803 78.9701 54.8312C83.6609 52.6438 86.4938 46.7427 84.7131 42.924ZM106.31 89.2385C104.778 86.1247 100.476 84.2106 93.9275 83.8548C89.3684 83.6046 85.702 84.8379 83.5939 87.296C82.118 89.0173 81.5391 91.21 82.0107 93.4523C82.1156 93.9602 82.293 94.4514 82.5106 94.9181C84.2715 98.6944 89.5657 100.743 96.3286 100.229C99.8292 99.9572 103.513 97.9867 105.491 95.3598C106.665 93.8024 107.107 92.1901 106.792 90.6666C106.689 90.175 106.528 89.6819 106.31 89.2385ZM83.6998 69.1096C81.8993 65.2485 77.8917 64.15 73.6455 63.0077C72.2431 62.6343 70.8058 62.2599 69.3419 61.7544C67.5734 61.1499 66.0728 60.3689 64.7619 59.7117C61.6513 58.149 58.9532 56.8186 55.0732 58.6278C51.5656 60.2634 49.2603 64.5755 51.6257 69.6482C52.9316 72.4486 54.4898 74.19 55.9983 75.8742C57.3375 77.3676 58.5929 78.7796 59.5667 80.8681C60.6286 83.1451 61.2146 85.3743 61.7671 87.556C62.307 89.6861 62.8371 91.9184 63.8417 94.0729C66.4908 99.7538 70.1912 101.535 74.7736 99.3983C78.2765 97.7649 78.1961 94.1463 78.1323 90.9447C78.0924 88.8282 78.0566 86.6466 78.8934 84.8962C79.5892 83.4468 80.3809 82.0674 81.1849 80.7513C83.497 76.9583 85.7025 73.4045 83.6998 69.1096Z" fill="url(#paint1_linear_1134_2212)"/>
<path d="M179.027 131.46C180.942 125.568 176.119 120.495 170.613 118.706C166.25 117.288 156.792 118.017 155.041 123.404C153.908 126.892 155.028 131.845 166.767 135.659C171.927 137.336 177.77 135.329 179.027 131.46ZM172.61 151.209C174.693 144.798 169.368 139.304 164.718 137.793C161.022 136.593 149.997 134.619 147.898 141.08C145.827 147.452 152.179 153.322 159.194 155.601C166.278 157.903 171.533 154.524 172.61 151.209ZM163.47 110.391C164.843 106.166 160.056 99.8739 154.005 97.908C149.691 96.5063 142.384 97.7199 140.737 102.786C139.077 107.896 144.737 113.099 151.149 115.182C156.072 116.782 162.168 114.398 163.47 110.391ZM147.678 158.992C148.681 155.67 146.84 151.336 142.294 146.61C139.13 143.318 135.608 141.719 132.39 142.079C130.136 142.331 128.217 143.54 127.033 145.502C126.763 145.945 126.558 146.425 126.399 146.915C125.111 150.877 127.586 155.986 132.883 160.223C135.628 162.411 139.667 163.483 142.905 162.91C144.825 162.572 146.248 161.694 147.057 160.365C147.317 159.936 147.535 159.465 147.678 158.992ZM144.87 128.851C146.187 124.799 144.005 121.262 141.679 117.531C140.908 116.301 140.112 115.047 139.386 113.679C138.505 112.031 137.94 110.437 137.429 109.062C136.22 105.798 135.154 102.984 131.083 101.662C127.402 100.466 122.775 102.047 121.045 107.37C120.091 110.309 120.043 112.645 119.997 114.906C119.958 116.911 119.913 118.8 119.201 120.992C118.425 123.381 117.333 125.411 116.249 127.383C115.191 129.31 114.057 131.304 113.322 133.565C111.385 139.526 112.876 143.352 117.685 144.915C121.361 146.109 123.77 143.408 125.907 141.023C127.321 139.448 128.783 137.828 130.589 137.118C132.086 136.533 133.606 136.064 135.091 135.65C139.369 134.452 143.406 133.358 144.87 128.851Z" fill="url(#paint2_linear_1134_2212)"/>
<path d="M203.949 27.5968C200.758 22.2864 193.766 22.5977 188.803 25.5796C184.871 27.9425 179.215 35.5584 182.133 40.414C184.021 43.5575 188.494 45.9615 199.075 39.604C203.725 36.8097 206.044 31.0836 203.949 27.5968ZM214.644 45.3964C211.172 39.6178 203.532 40.033 199.341 42.5513C196.01 44.5526 187.287 51.5781 190.786 57.4012C194.237 63.1442 202.834 62.202 209.157 58.4031C215.542 54.5666 216.439 48.3838 214.644 45.3964ZM177.841 25.5151C175.553 21.7073 167.664 21.1922 162.211 24.4687C158.323 26.8049 154.444 33.1163 157.188 37.6821C159.955 42.2881 167.595 41.4295 173.374 37.9574C177.811 35.2916 180.011 29.1267 177.841 25.5151ZM204.161 69.3184C202.311 66.3819 197.833 64.9279 191.283 65.2585C186.723 65.4862 183.206 67.096 181.366 69.761C180.078 71.6272 179.732 73.8683 180.435 76.0491C180.592 76.5432 180.82 77.0132 181.085 77.4546C183.231 81.0261 188.711 82.5098 195.383 81.2923C198.836 80.6558 202.294 78.311 203.986 75.4918C204.991 73.8203 205.262 72.1706 204.79 70.6882C204.636 70.2102 204.424 69.7366 204.161 69.3184ZM179.57 51.6632C177.376 48.0115 173.276 47.3378 168.933 46.6456C167.5 46.4208 166.031 46.1987 164.522 45.8491C162.7 45.4327 161.126 44.8128 159.754 44.2963C156.497 43.0673 153.675 42.0262 150.005 44.2311C146.688 46.2243 144.846 50.7538 147.728 55.5515C149.32 58.2 151.051 59.769 152.728 61.2863C154.216 62.6315 155.612 63.9046 156.799 65.8798C158.093 68.0334 158.909 70.1891 159.686 72.3011C160.446 74.3631 161.206 76.5278 162.431 78.5655C165.659 83.9383 169.525 85.3231 173.859 82.719C177.172 80.7284 176.714 77.138 176.316 73.9606C176.055 71.8599 175.791 69.694 176.44 67.8657C176.981 66.3515 177.624 64.8969 178.286 63.504C180.189 59.4901 182.011 55.7252 179.57 51.6632Z" fill="url(#paint3_linear_1134_2212)"/>
<path d="M273.63 104.614C271.11 98.9543 264.132 98.4112 258.843 100.766C254.652 102.632 248.11 109.502 250.414 114.677C251.906 118.027 256.052 120.958 267.329 115.938C272.286 113.731 275.285 108.33 273.63 104.614ZM282.076 123.584C279.334 117.426 271.701 116.907 267.234 118.895C263.684 120.476 254.17 126.386 256.933 132.592C259.658 138.713 268.306 138.825 275.045 135.825C281.85 132.796 283.494 126.768 282.076 123.584ZM247.971 99.3661C246.164 95.3079 238.396 93.8351 232.584 96.4227C228.44 98.2676 223.822 104.059 225.988 108.925C228.174 113.834 235.862 113.913 242.021 111.171C246.749 109.066 249.684 103.215 247.971 99.3661ZM268.756 146.05C267.278 142.91 263.01 140.922 256.469 140.452C251.915 140.122 248.228 141.291 246.077 143.712C244.571 145.407 243.954 147.589 244.387 149.84C244.483 150.349 244.652 150.843 244.861 151.314C246.556 155.12 251.813 157.261 258.584 156.865C262.089 156.654 265.807 154.749 267.83 152.157C269.031 150.62 269.501 149.016 269.213 147.487C269.119 146.993 268.966 146.498 268.756 146.05ZM246.5 125.53C244.768 121.638 240.78 120.47 236.554 119.254C235.158 118.856 233.728 118.456 232.273 117.925C230.515 117.29 229.029 116.483 227.729 115.803C224.647 114.186 221.972 112.809 218.061 114.55C214.526 116.124 212.145 120.396 214.422 125.509C215.679 128.332 217.206 130.1 218.685 131.81C219.998 133.327 221.229 134.76 222.166 136.866C223.188 139.161 223.735 141.4 224.249 143.591C224.752 145.73 225.243 147.971 226.21 150.143C228.759 155.869 232.428 157.715 237.047 155.658C240.578 154.086 240.561 150.467 240.553 147.265C240.55 145.148 240.552 142.966 241.419 141.23C242.14 139.793 242.956 138.428 243.783 137.126C246.161 133.374 248.428 129.859 246.5 125.53Z" fill="url(#paint4_linear_1134_2212)"/>
<path d="M314.553 29.8676C311.934 24.2527 304.948 23.8314 299.701 26.2782C295.543 28.2172 289.122 35.2001 291.516 40.3341C293.066 43.6578 297.263 46.5162 308.45 41.2995C313.367 39.0066 316.272 33.5542 314.553 29.8676ZM323.329 48.6875C320.479 42.5776 312.838 42.192 308.407 44.2585C304.885 45.9006 295.475 51.9758 298.346 58.1328C301.178 64.205 309.827 64.1667 316.512 61.0494C323.263 57.9014 324.801 51.8462 323.329 48.6875ZM288.805 25.0683C286.928 21.0421 279.136 19.7052 273.37 22.3938C269.259 24.3108 264.742 30.1822 266.993 35.0097C269.264 39.8797 276.952 39.8245 283.062 36.9754C287.753 34.788 290.586 28.8869 288.805 25.0683ZM310.402 71.3827C308.87 68.269 304.568 66.3548 298.02 65.9991C293.461 65.7488 289.794 66.9821 287.686 69.4402C286.21 71.1616 285.631 73.3542 286.103 75.5965C286.208 76.1044 286.385 76.5956 286.603 77.0624C288.364 80.8386 293.658 82.8869 300.421 82.3735C303.921 82.1015 307.606 80.131 309.583 77.5041C310.757 75.9467 311.199 74.3344 310.885 72.8108C310.782 72.3193 310.621 71.8262 310.402 71.3827ZM287.792 51.2539C285.992 47.3928 281.984 46.2942 277.738 45.1519C276.335 44.7785 274.898 44.4041 273.434 43.8987C271.666 43.2942 270.165 42.5131 268.854 41.8559C265.744 40.2932 263.045 38.9628 259.165 40.7721C255.658 42.4076 253.353 46.7197 255.718 51.7925C257.024 54.5928 258.582 56.3342 260.091 58.0184C261.43 59.5118 262.685 60.9238 263.659 63.0123C264.721 65.2894 265.307 67.5185 265.859 69.7002C266.399 71.8304 266.929 74.0627 267.934 76.2172C270.583 81.898 274.283 83.6794 278.866 81.5426C282.369 79.9092 282.288 76.2905 282.225 73.0889C282.185 70.9724 282.149 68.7909 282.986 67.0404C283.682 65.591 284.473 64.2117 285.277 62.8955C287.589 59.1026 289.795 55.5487 287.792 51.2539Z" fill="url(#paint5_linear_1134_2212)"/>
<path d="M383.118 113.604C385.033 107.712 380.211 102.639 374.704 100.85C370.341 99.4327 360.883 100.161 359.132 105.548C357.999 109.036 359.119 113.989 370.859 117.803C376.019 119.48 381.861 117.473 383.118 113.604ZM376.701 133.354C378.785 126.942 373.459 121.449 368.809 119.938C365.113 118.737 354.088 116.763 351.989 123.224C349.918 129.596 356.27 135.466 363.285 137.746C370.369 140.047 375.624 136.668 376.701 133.354ZM367.561 92.5349C368.934 88.31 364.147 82.0181 358.096 80.0522C353.782 78.6505 346.475 79.864 344.829 84.93C343.168 90.0404 348.829 95.2433 355.24 97.3266C360.163 98.926 366.259 96.5421 367.561 92.5349ZM351.769 141.136C352.772 137.814 350.932 133.48 346.385 128.754C343.221 125.462 339.699 123.863 336.481 124.223C334.227 124.476 332.309 125.684 331.124 127.646C330.855 128.089 330.649 128.569 330.49 129.059C329.203 133.022 331.678 138.13 336.974 142.367C339.719 144.555 343.758 145.627 346.996 145.055C348.916 144.716 350.339 143.838 351.148 142.509C351.408 142.08 351.627 141.609 351.769 141.136ZM348.961 110.995C350.278 106.943 348.096 103.406 345.77 99.6752C344.999 98.4456 344.203 97.1916 343.477 95.8235C342.596 94.1754 342.031 92.5807 341.52 91.2061C340.311 87.9417 339.245 85.1286 335.174 83.8057C331.493 82.6098 326.866 84.1912 325.137 89.5144C324.182 92.453 324.134 94.7893 324.088 97.0499C324.049 99.0554 324.004 100.944 323.292 103.136C322.516 105.525 321.424 107.555 320.34 109.528C319.282 111.454 318.148 113.448 317.413 115.709C315.476 121.67 316.967 125.497 321.776 127.059C325.452 128.253 327.861 125.552 329.998 123.167C331.412 121.592 332.874 119.972 334.68 119.262C336.177 118.677 337.697 118.208 339.182 117.794C343.46 116.597 347.497 115.502 348.961 110.995Z" fill="url(#paint6_linear_1134_2212)"/>
<path d="M408.042 9.74104C404.851 4.43061 397.859 4.7419 392.896 7.72376C388.963 10.0867 383.308 17.7026 386.225 22.5582C388.114 25.7017 392.587 28.1057 403.168 21.7482C407.818 18.9539 410.137 13.2278 408.042 9.74104ZM418.737 27.5406C415.265 21.762 407.625 22.1772 403.434 24.6955C400.103 26.6968 391.38 33.7222 394.879 39.5454C398.33 45.2884 406.927 44.3462 413.25 40.5473C419.635 36.7108 420.532 30.528 418.737 27.5406ZM381.934 7.65931C379.646 3.85149 371.757 3.33639 366.303 6.61294C362.415 8.94913 358.537 15.2605 361.28 19.8263C364.048 24.4323 371.688 23.5737 377.467 20.1016C381.903 17.4358 384.104 11.2709 381.934 7.65931ZM408.254 51.4626C406.404 48.526 401.926 47.0721 395.376 47.4027C390.816 47.6304 387.298 49.2402 385.459 51.9052C384.171 53.7714 383.824 56.0125 384.528 58.1933C384.685 58.6874 384.913 59.1574 385.178 59.5988C387.324 63.1703 392.804 64.654 399.476 63.4365C402.929 62.8 406.387 60.4552 408.079 57.636C409.083 55.9645 409.354 54.3148 408.883 52.8324C408.729 52.3544 408.517 51.8808 408.254 51.4626ZM383.663 33.8074C381.469 30.1557 377.368 29.482 373.026 28.7898C371.592 28.565 370.124 28.3429 368.615 27.9933C366.793 27.5769 365.219 26.957 363.847 26.4405C360.59 25.2115 357.767 24.1704 354.098 26.3753C350.78 28.3685 348.938 32.898 351.821 37.6957C353.413 40.3442 355.144 41.9132 356.821 43.4305C358.309 44.7757 359.705 46.0488 360.891 48.024C362.185 50.1776 363.001 52.3333 363.779 54.4453C364.538 56.5073 365.299 58.672 366.523 60.7097C369.752 66.0825 373.618 67.4673 377.952 64.8632C381.265 62.8726 380.807 59.2822 380.409 56.1048C380.148 54.0041 379.884 51.8382 380.533 50.0099C381.074 48.4957 381.717 47.0411 382.379 45.6482C384.282 41.6343 386.104 37.8694 383.663 33.8074Z" fill="url(#paint7_linear_1134_2212)"/>
<defs>
<linearGradient id="paint0_linear_1134_2212" x1="12.6986" y1="177.063" x2="417.058" y2="1.96755" gradientUnits="userSpaceOnUse">
<stop stop-color="#00FF62"/>
<stop offset="1" stop-color="#00FFE1"/>
</linearGradient>
<linearGradient id="paint1_linear_1134_2212" x1="12.6986" y1="177.063" x2="417.058" y2="1.96755" gradientUnits="userSpaceOnUse">
<stop stop-color="#00FF62"/>
<stop offset="1" stop-color="#00FFE1"/>
</linearGradient>
<linearGradient id="paint2_linear_1134_2212" x1="12.6986" y1="177.063" x2="417.058" y2="1.96755" gradientUnits="userSpaceOnUse">
<stop stop-color="#00FF62"/>
<stop offset="1" stop-color="#00FFE1"/>
</linearGradient>
<linearGradient id="paint3_linear_1134_2212" x1="12.6986" y1="177.063" x2="417.058" y2="1.96755" gradientUnits="userSpaceOnUse">
<stop stop-color="#00FF62"/>
<stop offset="1" stop-color="#00FFE1"/>
</linearGradient>
<linearGradient id="paint4_linear_1134_2212" x1="12.6986" y1="177.063" x2="417.058" y2="1.96755" gradientUnits="userSpaceOnUse">
<stop stop-color="#00FF62"/>
<stop offset="1" stop-color="#00FFE1"/>
</linearGradient>
<linearGradient id="paint5_linear_1134_2212" x1="12.6986" y1="177.063" x2="417.058" y2="1.96755" gradientUnits="userSpaceOnUse">
<stop stop-color="#00FF62"/>
<stop offset="1" stop-color="#00FFE1"/>
</linearGradient>
<linearGradient id="paint6_linear_1134_2212" x1="12.6986" y1="177.063" x2="417.058" y2="1.96755" gradientUnits="userSpaceOnUse">
<stop stop-color="#00FF62"/>
<stop offset="1" stop-color="#00FFE1"/>
</linearGradient>
<linearGradient id="paint7_linear_1134_2212" x1="12.6986" y1="177.063" x2="417.058" y2="1.96755" gradientUnits="userSpaceOnUse">
<stop stop-color="#00FF62"/>
<stop offset="1" stop-color="#00FFE1"/>
</linearGradient>
</defs>
</svg>
